<?xml version="1.0" standalone="no"?>
<!DOCTYPE svg PUBLIC "-//W3C//DTD SVG 20010904//EN"
 "http://www.w3.org/TR/2001/REC-SVG-20010904/DTD/svg10.dtd">
<svg version="1.0" xmlns="http://www.w3.org/2000/svg"
 width="800.000000pt" height="800.000000pt" viewBox="0 0 800.000000 800.000000"
 preserveAspectRatio="xMidYMid meet">
<metadata>
Created by potrace 1.14, written by Peter Selinger 2001-2017
</metadata>
<g transform="translate(0.000000,800.000000) scale(0.100000,-0.100000)"
fill="#000000" stroke="none">
<path d="M4000 6783 c0 -5 -2 -91 -3 -193 l-2 -185 -394 -2 c-216 -1 -396 -5
-399 -8 -3 -3 -272 -5 -599 -5 l-593 0 0 -498 c0 -274 3 -898 7 -1385 l6 -887
188 0 189 0 3 193 2 192 3 -192 2 -193 193 0 c137 0 196 -3 205 -12 17 -17 17
-389 0 -406 -8 -8 -67 -12 -200 -12 l-188 0 0 -183 c0 -129 -4 -187 -12 -195
-9 -9 -68 -12 -205 -12 l-193 0 0 -1400 0 -1400 1990 0 1990 0 0 1400 0 1400
-193 0 c-137 0 -196 3 -205 12 -8 8 -12 66 -12 195 l0 183 -188 0 c-133 0
-192 4 -200 12 -17 17 -17 389 0 406 9 9 113 12 405 12 l392 0 3 186 c2 102 0
188 -4 191 -14 8 -9 388 4 401 9 9 69 12 210 12 l198 0 0 784 c0 638 -2 786
-13 795 -9 6 -83 12 -198 13 l-184 3 -5 190 -5 190 -189 3 c-119 1 -194 7
-203 13 -10 9 -13 56 -13 200 l0 189 -795 0 c-437 0 -795 -3 -795 -7z m407
-1880 c-1 -54 -3 -10 -3 97 0 107 2 151 3 98 2 -54 2 -142 0 -195z m691 -110
c-53 -2 -143 -2 -200 0 -57 1 -13 3 97 3 110 0 156 -2 103 -3z"/>
</g>
</svg>
